<?xml version="1.0" standalone="no"?>
<!DOCTYPE svg PUBLIC "-//W3C//DTD SVG 20010904//EN"
 "http://www.w3.org/TR/2001/REC-SVG-20010904/DTD/svg10.dtd">
<svg version="1.0" xmlns="http://www.w3.org/2000/svg"
 width="1024.000000pt" height="1024.000000pt" viewBox="0 0 1024.000000 1024.000000"
 preserveAspectRatio="xMidYMid meet">

<g transform="translate(0.000000,1024.000000) scale(0.100000,-0.100000)"
fill="#000000" stroke="none">
<path d="M0 5120 l0 -5120 5120 0 5120 0 0 5120 0 5120 -5120 0 -5120 0 0
-5120z m5421 3815 c263 -31 592 -116 816 -211 193 -82 421 -213 575 -331 85
-65 246 -218 324 -308 186 -214 366 -520 445 -756 38 -113 79 -291 79 -341 0
-38 0 -38 -40 -38 -22 0 -43 0 -47 0 -4 -1 -15 35 -25 80 -28 132 -97 327
-160 455 -106 216 -216 375 -382 556 -131 143 -182 188 -368 325 -117 87 -449
253 -576 289 -31 9 -82 25 -112 36 -86 32 -353 97 -485 120 -154 25 -424 35
-580 20 -110 -10 -388 -60 -525 -95 -271 -68 -599 -202 -815 -333 -96 -58
-347 -256 -428 -339 -57 -58 -215 -259 -246 -314 -9 -15 -44 -76 -78 -136 -68
-119 -149 -326 -209 -531 -21 -73 -42 -133 -46 -133 -11 0 -21 67 -14 97 l7
28 -21 -30 c-11 -16 -20 -37 -20 -46 0 -9 -9 -27 -21 -40 l-20 -24 6 46 c11
87 63 279 105 386 191 492 456 825 887 1111 330 220 793 385 1253 446 63 9
126 17 140 20 71 10 467 5 581 -9z m-241 -269 c41 -8 111 -17 155 -21 83 -8
235 -49 235 -65 0 -16 -25 -18 -196 -12 l-172 5 -47 -27 -48 -26 -39 20 c-21
11 -38 17 -38 15 0 -3 -11 2 -25 11 -21 14 -39 14 -157 4 -73 -6 -160 -13
-193 -16 l-60 -5 35 31 c46 41 109 58 256 70 67 5 132 14 145 19 34 14 63 13
149 -3z m-2226 -257 c19 -15 26 -30 26 -55 0 -71 -82 -110 -127 -61 -38 40
-32 91 14 119 37 23 55 22 87 -3z m4331 -14 c29 -28 34 -85 9 -109 -23 -23
-89 -21 -114 4 -25 25 -27 86 -3 112 24 27 78 24 108 -7z m-1263 -5 c171 -16
333 -78 548 -210 129 -79 215 -148 331 -267 216 -222 362 -475 463 -798 25
-81 46 -153 46 -161 0 -11 -26 -14 -134 -14 l-134 0 -21 87 c-75 299 -213 535
-442 759 -236 230 -512 354 -789 354 -161 0 -309 -42 -476 -134 -56 -31 -120
-63 -142 -70 -38 -14 -41 -13 -54 5 -13 19 -14 19 -40 -5 -33 -32 -27 -63 16
-81 46 -19 250 -44 452 -55 183 -10 333 -31 378 -51 22 -11 44 -45 34 -54 -1
-1 -75 1 -163 6 -492 25 -1307 21 -1733 -10 -52 -4 -96 -3 -98 1 -3 4 2 21 11
37 25 49 63 55 465 76 151 8 291 19 310 25 35 10 192 160 271 260 45 57 160
137 281 195 136 66 281 99 493 114 11 0 68 -4 127 -9z m-1562 -14 c85 -16 238
-69 325 -114 63 -32 191 -126 208 -152 7 -12 -5 -31 -56 -83 -36 -37 -73 -67
-82 -67 -8 0 -64 24 -123 54 -200 100 -340 132 -532 123 -145 -7 -279 -44
-439 -122 -118 -57 -188 -106 -304 -209 -70 -62 -205 -218 -265 -308 -64 -94
-157 -317 -191 -456 l-23 -92 -124 0 c-119 0 -124 1 -124 21 0 25 106 344 148
445 119 286 375 586 645 757 147 94 377 187 507 206 90 14 348 12 430 -3z
m-1669 -156 c23 -13 25 -36 3 -44 -22 -9 -34 1 -34 30 0 27 3 28 31 14z m4599
-25 c0 -16 -27 -32 -37 -21 -7 7 16 36 28 36 5 0 9 -7 9 -15z m-4716 -137 c34
-49 1 -149 -58 -173 -46 -19 -52 -19 -76 5 -44 44 -18 127 54 171 41 25 61 24
80 -3z m4888 -3 c50 -34 67 -88 44 -133 -42 -82 -150 -35 -170 74 -15 79 51
110 126 59z m-5085 -337 c32 -37 35 -46 18 -77 -39 -76 -135 -60 -135 23 0 65
76 99 117 54z m5251 -5 c34 -30 37 -59 8 -88 -31 -31 -49 -32 -76 -3 -27 29
-26 73 2 92 29 20 41 20 66 -1z m-2238 -93 c752 -12 844 -28 1022 -175 62 -51
146 -165 183 -249 13 -30 35 -92 47 -138 21 -77 23 -104 23 -363 0 -260 -2
-287 -23 -375 -13 -52 -42 -133 -64 -180 -34 -72 -56 -100 -137 -181 -78 -78
-114 -105 -190 -145 -63 -33 -101 -60 -116 -82 -36 -53 -145 -140 -202 -161
-93 -36 -305 -68 -377 -57 -36 6 -61 21 -138 88 -111 96 -165 123 -277 139
-106 15 -333 6 -416 -16 -74 -19 -110 -43 -208 -134 -42 -39 -88 -73 -103 -77
-86 -22 -361 32 -451 89 -78 48 -162 119 -168 143 -4 13 -31 32 -73 53 -230
112 -354 255 -423 487 -18 59 -21 107 -26 335 -6 302 1 385 49 516 71 196 236
365 420 429 81 29 207 40 588 53 324 11 457 11 1060 1z m-3126 -166 c6 -17 1
-52 -15 -95 -9 -22 -45 -49 -66 -49 -10 0 4 116 16 139 14 25 56 28 65 5z
m928 -449 c-1 -22 -5 -174 -8 -337 -5 -250 -4 -309 10 -376 19 -96 19 -92 1
-92 -22 0 -138 54 -151 71 -20 25 -23 98 -16 376 l7 271 31 44 c35 49 90 90
113 86 12 -3 15 -14 13 -43z m3591 -6 c44 -23 97 -84 108 -123 11 -40 4 -425
-10 -553 -6 -54 -8 -59 -45 -79 -38 -21 -104 -40 -112 -31 -2 2 4 37 13 78 14
61 17 130 18 397 0 177 1 322 3 322 2 0 13 -5 25 -11z m-4000 -169 l88 0 -3
-127 c-2 -71 -1 -180 1 -243 l5 -115 -288 -3 c-267 -2 -291 -1 -332 17 l-44
20 0 206 0 206 26 26 26 26 217 -6 c119 -4 256 -7 304 -7z m4916 -9 c27 -15
31 -51 31 -267 l0 -193 -27 -14 c-22 -11 -99 -14 -346 -16 l-317 -2 2 248 3
248 145 5 c212 7 487 2 509 -9z m-4769 -771 c51 -171 97 -282 173 -410 169
-290 592 -706 907 -895 151 -90 224 -147 390 -304 185 -176 228 -221 211 -221
-35 0 -242 70 -330 111 -57 27 -105 49 -107 49 -13 0 -113 52 -204 106 -58 34
-119 69 -137 78 -41 21 -287 204 -383 286 -266 226 -502 521 -635 795 -61 127
-168 428 -181 512 -6 40 -5 42 22 46 16 2 74 4 128 3 l99 -1 47 -155z m4367
107 c-10 -73 -112 -367 -169 -488 -65 -136 -115 -216 -241 -382 -199 -264
-470 -518 -763 -715 -86 -57 -297 -175 -372 -206 -100 -42 -417 -156 -434
-156 -4 0 29 35 75 77 45 43 138 132 207 199 144 139 177 166 285 229 369 219
865 745 1012 1073 40 90 102 279 114 348 l11 64 140 0 141 0 -6 -43z m247 17
c22 -58 -13 -230 -98 -480 -52 -152 -69 -190 -162 -350 -126 -220 -283 -415
-464 -579 -30 -27 -94 -86 -141 -131 -75 -71 -177 -144 -202 -144 -4 0 18 25
50 55 59 56 48 62 -22 12 -190 -135 -413 -264 -535 -310 -36 -13 -108 -41
-160 -61 -53 -20 -104 -36 -113 -36 -39 0 44 52 168 105 148 64 338 165 445
237 343 231 636 521 825 818 118 185 224 439 285 681 55 219 46 199 84 199 22
0 36 -6 40 -16z m-5029 -204 c68 -219 109 -328 163 -436 128 -255 272 -446
502 -668 313 -301 515 -434 1013 -666 37 -17 67 -37 67 -44 0 -14 -131 23
-273 78 -146 56 -374 183 -486 269 -29 23 -73 56 -98 74 -59 41 -258 211 -308
262 -21 23 -43 41 -48 41 -5 0 56 -63 134 -140 79 -77 145 -140 147 -140 2 0
10 -7 18 -15 10 -9 11 -15 4 -15 -38 0 -402 343 -493 465 -155 206 -172 232
-282 445 -54 105 -85 180 -106 255 -12 44 -30 98 -40 120 -9 22 -20 65 -23 95
-6 54 -5 54 9 25 l15 -30 -2 45 c-1 25 -1 79 0 120 2 64 4 72 16 60 8 -8 40
-98 71 -200z m793 -2 c86 -115 175 -201 271 -263 148 -96 333 -255 586 -504
249 -246 576 -565 734 -718 l75 -71 504 499 c490 486 604 591 856 789 161 127
227 190 298 283 32 42 64 77 70 77 20 0 -27 -198 -68 -287 -19 -40 -317 -346
-1154 -1183 -256 -256 -476 -471 -490 -478 -24 -12 -31 -7 -185 140 -88 84
-250 240 -360 348 -110 108 -261 255 -335 327 -203 196 -233 226 -530 528
-235 239 -280 290 -306 345 -53 109 -82 260 -50 260 8 0 46 -42 84 -92z m1754
-399 l23 -16 -20 -37 c-50 -94 -97 -99 -157 -19 l-38 52 30 16 c16 8 39 29 51
45 l22 29 33 -27 c18 -15 43 -34 56 -43z m-3670 -101 c25 -57 63 -150 84 -207
29 -79 40 -99 46 -85 4 11 41 102 82 204 l74 185 70 3 70 3 -68 -138 c-90
-184 -168 -362 -176 -401 -4 -18 -10 -35 -15 -37 -16 -11 -91 8 -96 24 -14 40
-117 277 -168 386 -87 183 -85 165 -11 165 l63 0 45 -102z m844 67 c68 -43 94
-84 94 -152 0 -30 -7 -68 -16 -86 -23 -45 -64 -87 -86 -87 -10 0 -18 -2 -18
-5 0 -8 69 -104 113 -157 l39 -48 -74 0 -75 0 -53 90 -54 91 -63 -2 -63 -2 0
-89 0 -89 -52 3 -52 3 -3 235 c-1 129 -5 257 -8 283 l-6 49 164 -4 c162 -3
164 -3 213 -33z m5473 19 c8 -9 144 -295 170 -359 l12 -29 21 44 c11 25 30 73
43 107 13 33 42 102 65 151 l42 90 65 4 c36 2 67 1 69 -1 2 -2 -2 -11 -10 -20
-27 -30 -135 -257 -197 -415 -44 -108 -57 -126 -93 -126 -18 0 -38 6 -44 13
-5 6 -28 55 -50 107 -31 73 -191 410 -209 440 -5 9 108 3 116 -6z m-2854 -31
c27 -41 32 -72 13 -91 -22 -22 -55 -13 -99 27 -43 39 -43 40 -24 55 11 8 29
21 40 30 30 23 42 20 70 -21z m3726 10 c105 -54 146 -161 97 -253 -15 -27 -39
-53 -60 -65 l-36 -21 36 -51 c20 -28 52 -70 70 -94 l34 -44 -40 -9 c-67 -14
-83 -5 -147 94 -60 91 -60 91 -95 86 -19 -3 -47 -6 -61 -6 -18 0 -26 -5 -26
-17 1 -10 0 -48 -1 -85 l-2 -68 -50 0 -50 0 0 280 0 280 138 0 c131 0 141 -1
193 -27z m-3396 -5 c14 -6 25 -14 25 -18 0 -11 -75 -78 -90 -80 -38 -5 -43 -1
-37 36 11 65 47 87 102 62z m-79 -145 c47 -18 72 -37 108 -78 60 -70 77 -112
83 -205 4 -62 1 -86 -17 -134 -29 -75 -87 -139 -165 -179 -52 -27 -70 -31
-140 -32 -102 0 -163 23 -231 87 -73 69 -99 130 -99 238 0 93 9 116 74 203 39
53 90 87 173 117 64 23 125 19 214 -17z m-3506 -491 c0 -26 -62 -163 -73 -159
-11 3 -67 136 -67 159 0 32 20 19 42 -27 12 -25 25 -45 29 -45 3 0 16 23 28
50 21 48 41 59 41 22z m78 -82 c-2 -41 -7 -75 -13 -75 -14 0 -30 125 -21 161
7 28 8 28 22 9 11 -14 14 -41 12 -95z m305 28 c51 -114 48 -137 -8 -78 -16 17
-32 30 -36 30 -4 0 -22 -12 -39 -26 -17 -15 -34 -24 -37 -21 -9 10 59 177 72
177 7 0 28 -37 48 -82z m181 61 c6 -5 -3 -13 -22 -20 -30 -10 -31 -13 -34 -75
-4 -85 -22 -87 -26 -4 -2 56 -6 67 -24 75 -28 13 -34 32 -11 38 24 7 106 -3
117 -14z m76 -68 c0 -90 -10 -118 -29 -82 -21 38 -9 171 15 171 11 0 14 -20
14 -89z m181 60 c39 -39 40 -92 3 -126 -34 -32 -74 -32 -108 0 -30 27 -33 62
-11 105 29 57 72 64 116 21z m223 7 c7 -29 6 -116 -2 -146 -7 -22 -9 -21 -45
23 -21 25 -42 45 -46 45 -5 0 -11 -18 -15 -40 -3 -22 -10 -40 -15 -40 -12 0
-19 160 -8 167 5 3 31 -14 58 -37 l49 -41 0 45 c0 48 13 62 24 24z m137 12
c10 -6 19 -17 19 -26 0 -12 -8 -13 -36 -8 -51 9 -41 -15 14 -35 48 -17 56 -47
21 -80 -39 -37 -87 -32 -102 11 -5 15 0 17 31 15 49 -3 56 25 10 38 -39 12
-49 46 -22 76 19 21 36 24 65 9z m4919 -10 c0 -11 -11 -45 -25 -76 -14 -31
-25 -63 -25 -70 0 -30 -19 -12 -44 42 -50 105 -44 150 10 79 30 -40 41 -38 50
10 7 37 34 49 34 15z m63 -70 c1 -59 -2 -84 -10 -87 -10 -4 -13 17 -13 80 0
74 6 105 17 93 2 -2 4 -41 6 -86z m276 12 c44 -110 41 -128 -10 -71 -32 36
-54 34 -69 -6 -10 -27 -30 -34 -30 -10 0 14 43 136 55 156 13 20 24 6 54 -69z
m415 35 c31 -47 30 -74 -2 -107 -17 -16 -36 -30 -43 -30 -19 0 -79 69 -79 91
0 27 29 69 54 79 25 9 51 -3 70 -33z m196 -41 c0 -47 -4 -87 -8 -90 -4 -2 -16
7 -26 22 -10 15 -28 35 -41 44 -23 17 -23 17 -29 -18 -11 -54 -26 -30 -26 42
0 74 8 79 60 34 19 -16 38 -29 43 -30 4 0 7 18 7 40 0 22 5 40 10 40 6 0 10
-35 10 -84z m124 74 c39 -14 31 -28 -16 -32 l-43 -3 43 -23 c24 -13 45 -29 48
-37 17 -44 -74 -88 -103 -50 -20 29 -16 34 27 28 25 -4 40 -2 40 5 0 6 -18 21
-40 33 -45 26 -48 36 -20 67 23 25 29 26 64 12z m-7566 -97 c4 -68 3 -75 -13
-70 -9 4 -19 7 -21 7 -6 0 -5 80 3 123 9 61 27 28 31 -60z m123 57 c35 -44 49
-44 49 1 0 19 5 29 15 29 12 0 15 -15 15 -79 0 -44 -4 -82 -8 -85 -5 -3 -25
15 -46 39 -20 25 -41 45 -46 45 -6 0 -10 -21 -10 -46 0 -32 -4 -44 -12 -42 -9
3 -14 33 -16 91 -3 102 8 111 59 47z m519 30 c0 -5 -9 -14 -19 -20 -15 -7 -21
-26 -26 -75 -9 -84 -28 -81 -35 6 -4 57 -7 64 -27 67 -13 2 -23 10 -23 18 0
11 15 14 65 14 36 0 65 -4 65 -10z m5480 -16 c15 -39 13 -124 -4 -124 -13 0
-26 59 -26 121 0 36 17 38 30 3z m141 -23 l32 -25 -6 37 c-6 40 6 49 23 18 11
-21 14 -110 4 -135 -5 -12 -16 -5 -50 32 l-43 47 -1 -42 c0 -30 -4 -43 -14
-43 -10 0 -15 20 -18 73 -7 101 -10 99 73 38z m429 35 c0 -7 -7 -19 -15 -26
-10 -8 -15 -30 -15 -60 0 -27 -3 -55 -6 -64 -12 -32 -24 -3 -24 59 0 62 -1 65
-27 71 -66 16 -51 34 28 34 43 0 59 -4 59 -14z m310 0 c0 -8 -10 -16 -22 -18
-20 -3 -24 -10 -28 -66 -6 -81 -24 -85 -28 -5 -3 55 -5 62 -27 67 -14 4 -25
13 -25 21 0 12 14 15 65 15 50 0 65 -3 65 -14z m70 -60 c0 -53 -4 -77 -15 -86
-13 -11 -15 -2 -15 74 0 70 3 86 15 86 12 0 15 -15 15 -74z m-5242 -221 c19
-7 14 -21 -10 -33 -20 -9 -18 -10 12 -5 27 4 32 3 24 -6 -6 -7 -42 -16 -80
-20 -99 -11 -1525 -5 -1454 6 14 2 93 7 175 12 l150 8 -183 2 c-113 0 -181 -3
-177 -8 3 -6 -50 -11 -135 -13 l-140 -3 0 31 c0 17 2 33 4 35 6 5 1797 0 1814
-6z m5760 -9 c6 -28 -7 -34 -78 -37 -36 -2 -69 -5 -75 -8 -5 -3 -98 -6 -205
-6 -107 -1 -217 -5 -244 -10 -40 -6 -48 -6 -41 5 6 10 3 11 -16 6 -29 -10
-1141 -16 -1222 -7 l-57 6 22 32 c13 18 32 34 43 36 11 2 436 4 945 3 892 -1
925 -2 928 -20z m-5385 -71 c29 -13 69 -40 90 -60 44 -41 151 -115 166 -115 5
0 13 -5 16 -11 11 -17 -61 17 -111 53 -26 18 -75 51 -110 73 -74 47 -122 84
-111 84 5 1 32 -10 60 -24z m5360 18 c-7 -2 -19 -2 -25 0 -7 3 -2 5 12 5 14 0
19 -2 13 -5z m-2323 -82 c0 -9 -133 -101 -146 -101 -4 0 -15 -7 -25 -16 -10
-9 -24 -14 -31 -12 -11 4 131 108 147 108 4 0 13 7 21 15 17 17 34 20 34 6z
m-3192 -56 c13 -14 21 -29 17 -33 -8 -8 -1167 -9 -1600 -2 -165 3 -275 7 -245
9 30 1 91 9 135 16 79 13 77 13 -128 12 -159 -2 -207 1 -207 10 0 10 138 14
638 16 350 2 801 2 1001 1 l364 -3 25 -26z m5544 5 c5 -13 7 -29 4 -35 -3 -9
-257 -13 -973 -18 -947 -6 -1173 -3 -1173 15 0 5 13 23 29 39 l30 29 1037 -3
1037 -4 9 -23z m-7472 -41 c-25 -4 -58 -7 -75 -7 -29 0 -29 0 -5 8 14 4 48 8
75 8 l50 -1 -45 -8z m2448 -84 c26 -14 39 -25 29 -25 -10 0 -35 11 -55 25 -20
14 -33 25 -29 25 4 0 29 -11 55 -25z m2409 9 c-3 -3 -12 -4 -19 -1 -8 3 -5 6
6 6 11 1 17 -2 13 -5z m-2676 -61 c45 -27 44 -41 -4 -47 -105 -13 -192 -16
-177 -6 11 7 6 10 -20 10 -26 0 -31 -3 -20 -10 12 -8 10 -10 -8 -10 -13 0 -21
3 -19 8 3 4 -117 7 -266 8 -150 0 -219 -1 -154 -3 65 -2 116 -7 113 -11 -2 -4
-69 -4 -148 -1 -78 4 -233 8 -343 10 l-200 3 155 6 c101 3 13 6 -253 7 -224 1
-413 5 -420 9 -8 5 -9 4 -2 -4 6 -6 24 -13 40 -15 17 -3 -3 -3 -44 -1 -41 2
-137 5 -215 6 l-141 2 130 6 c81 4 105 7 63 8 -38 1 -68 5 -68 10 0 9 -193 12
-200 2 -9 -12 -65 -19 -80 -10 -20 12 -3 27 35 33 17 2 522 5 1123 6 1013 1
1096 0 1123 -16z m5293 -5 c26 -42 10 -43 -487 -42 -260 0 -458 -3 -442 -7 17
-4 -107 -6 -275 -6 -232 1 -273 3 -170 7 95 5 35 7 -200 7 -557 1 -820 4 -820
10 0 4 10 17 22 30 l22 23 1169 -2 c1095 -3 1171 -4 1181 -20z m-2081 -55
c-51 -2 -136 -2 -190 0 -54 1 -12 3 92 3 105 0 149 -2 98 -3z m-3570 -10 c-24
-2 -62 -2 -85 0 -24 2 -5 4 42 4 47 0 66 -2 43 -4z m459 -101 c163 -6 200 -10
214 -23 15 -15 11 -17 -43 -24 -44 -6 -53 -9 -38 -16 30 -12 -29 -11 -94 1
-51 9 -87 4 -93 -15 -2 -6 -29 -9 -63 -7 -186 8 -508 10 -490 2 19 -8 19 -9
-2 -9 -13 -1 -23 4 -23 9 0 12 -37 14 -42 3 -1 -5 -185 -5 -408 -1 -223 3
-458 7 -523 8 -71 1 -115 5 -112 11 8 11 3 11 -29 -1 -17 -6 -26 -6 -26 0 0 6
5 10 12 10 8 0 9 3 2 10 -6 6 -129 11 -316 13 -205 1 -304 5 -297 12 16 16
1971 30 2371 17z m5075 -13 c21 -5 57 -9 79 -9 77 0 175 -86 190 -166 20 -108
-59 -194 -177 -194 -71 0 -148 76 -157 155 -6 54 17 121 53 155 35 33 31 39
-18 26 -26 -7 -86 -9 -152 -5 -73 4 -137 1 -190 -8 -51 -8 -127 -12 -210 -9
-80 3 -113 2 -85 -3 l45 -8 -40 -1 c-432 -14 -1520 -7 -1465 9 16 4 -1 7 -50
8 -172 3 -355 14 -358 22 -2 5 -15 9 -28 9 -30 0 -31 18 -1 25 46 11 273 12
1384 8 628 -3 1159 -9 1180 -14z m-1037 -266 c40 -61 266 -510 358 -713 39
-85 103 -225 142 -310 40 -85 78 -172 85 -192 l14 -38 -149 0 -149 0 -58 118
-58 117 -90 6 c-49 4 -149 7 -222 8 l-131 1 -30 -52 c-60 -108 -106 -180 -121
-188 -20 -10 -261 -18 -261 -8 0 4 25 46 55 94 62 99 83 151 126 306 16 60 38
127 49 148 11 21 33 74 51 117 51 130 280 574 317 616 24 27 38 21 72 -30z
m-855 12 c53 -14 225 -93 249 -115 4 -5 -13 -34 -39 -66 -25 -32 -58 -80 -71
-106 l-25 -49 -34 26 c-52 41 -127 65 -198 65 -72 0 -117 -22 -142 -69 -13
-27 -14 -35 -2 -63 22 -51 42 -63 191 -113 163 -53 224 -84 283 -143 88 -89
108 -256 45 -385 -43 -86 -117 -166 -194 -208 -63 -34 -64 -34 -193 -34 -127
0 -132 1 -225 38 -97 39 -200 107 -200 132 0 7 18 35 40 60 23 26 52 69 66 96
13 27 26 49 29 49 2 0 24 -14 49 -30 110 -74 232 -106 309 -81 20 7 50 28 67
48 26 29 31 42 26 67 -13 63 -44 82 -261 161 -55 20 -124 51 -153 68 -89 53
-144 164 -145 292 -2 225 151 373 388 374 45 1 108 -6 140 -14z m-5297 -287
c-8 -460 3 -539 87 -621 44 -43 128 -77 189 -77 63 0 159 51 194 103 16 23 33
51 38 62 5 11 11 198 14 415 l5 395 130 7 c71 3 131 6 132 5 1 -2 2 -185 3
-407 2 -445 0 -462 -60 -586 -77 -157 -279 -274 -475 -274 -239 1 -442 162
-512 408 -13 47 -17 127 -20 454 l-5 396 23 5 c13 2 78 5 143 6 l119 1 -5
-292z m1116 286 c8 -3 66 -65 128 -137 62 -73 142 -164 178 -203 36 -39 90
-100 120 -135 181 -208 238 -276 248 -294 9 -15 11 73 12 371 l0 392 128 4
c70 3 130 3 135 1 4 -2 7 -223 8 -491 1 -268 4 -548 8 -622 4 -74 6 -137 4
-139 -1 -1 -48 -5 -105 -8 l-103 -5 -86 89 c-47 48 -121 131 -164 183 -44 52
-125 149 -180 215 -151 179 -215 265 -240 317 l-22 48 5 -425 5 -425 -132 0
-131 0 -1 243 c-2 411 -15 981 -24 1005 -7 22 -7 22 93 22 55 0 107 -3 116 -6z
m1370 -25 c3 -16 6 -301 6 -632 l1 -602 -131 -3 -130 -3 0 563 c0 310 -3 593
-6 630 l-7 67 114 4 c63 1 121 4 130 5 11 1 19 -8 23 -29z m1272 -31 c-23 -61
-43 -110 -146 -358 -26 -63 -66 -158 -87 -210 -48 -115 -183 -399 -254 -534
-56 -106 -70 -118 -134 -107 l-40 6 -90 180 c-50 99 -123 254 -162 345 -39 91
-113 260 -164 375 -74 170 -139 333 -139 352 0 2 61 3 135 3 131 0 136 -1 145
-22 14 -36 106 -249 185 -428 104 -236 145 -336 145 -349 0 -34 21 5 74 137
32 81 109 265 170 410 l111 262 137 0 138 0 -24 -62z m449 53 c172 -7 183 -9
257 -40 155 -65 238 -178 246 -335 8 -149 -48 -270 -159 -349 -33 -22 -59 -45
-59 -51 0 -21 108 -208 197 -341 l93 -140 -157 -3 c-140 -2 -159 -1 -168 14
-5 9 -72 111 -148 226 -110 167 -142 208 -160 208 -32 0 -44 11 -54 49 -13 50
-29 49 -29 -1 0 -24 0 -146 -2 -271 l-2 -228 -127 3 -128 3 -6 190 c-4 105 -7
350 -8 546 -1 289 2 365 14 405 8 27 15 59 15 71 0 57 23 59 385 44z m2745
-309 c0 -170 3 -390 7 -489 l6 -180 171 1 171 1 3 -142 3 -143 -240 0 -239 0
-77 154 -78 154 -5 476 -5 476 142 0 141 0 0 -308z m-5695 -1262 c31 -91 60
-169 64 -173 4 -4 15 20 24 53 17 61 133 300 145 300 8 0 106 -215 143 -313
22 -57 38 -62 39 -12 0 11 9 43 19 70 11 28 35 95 55 150 29 83 39 100 56 99
11 0 40 -1 65 -2 l45 -2 -20 -40 c-42 -82 -190 -475 -190 -504 0 -32 -15 -48
-41 -44 -29 4 -35 15 -110 211 -34 86 -64 157 -67 157 -4 0 -19 -33 -34 -72
-26 -71 -77 -200 -104 -265 -25 -61 -52 -42 -88 63 -49 142 -160 421 -194 486
-4 8 120 16 130 8 3 -3 32 -79 63 -170z m3226 170 c25 0 105 -83 211 -217 43
-56 86 -104 94 -107 13 -5 15 16 12 159 l-3 165 60 0 60 0 0 -288 0 -287 -31
-3 c-34 -3 -60 24 -248 260 -43 54 -82 100 -87 103 -5 4 -10 -40 -10 -107 -1
-62 -4 -144 -8 -183 l-6 -70 -47 -3 -48 -3 -1 213 c0 117 -4 248 -7 290 -8 78
-3 91 26 82 8 -2 23 -4 33 -4z m-2055 -39 c-3 -20 -6 -46 -6 -58 0 -23 -2 -23
-125 -23 l-125 0 0 -55 0 -55 115 0 115 0 0 -49 c0 -35 -4 -51 -16 -55 -9 -3
-60 -6 -114 -6 l-98 0 -4 -60 -3 -60 139 0 139 0 -7 -31 c-3 -17 -6 -43 -6
-58 l0 -26 -192 -3 -191 -3 6 128 c4 70 7 200 7 288 l0 160 186 1 186 0 -6
-35z m576 2 c60 -32 134 -124 144 -180 16 -87 -19 -193 -89 -265 -74 -77 -194
-108 -352 -93 l-75 7 5 276 c3 153 6 281 5 286 0 5 65 7 155 3 145 -6 159 -8
207 -34z m669 18 c50 -15 119 -79 154 -142 73 -132 14 -303 -129 -376 -50 -25
-165 -40 -291 -38 l-50 1 0 288 0 288 140 -5 c77 -3 156 -10 176 -16z m512
-228 c4 -137 10 -267 13 -290 l7 -43 -60 0 -60 0 -8 159 c-4 88 -4 218 0 290
l8 131 47 0 47 0 6 -247z m1335 227 c50 -23 102 -58 102 -69 0 -4 -16 -26 -36
-50 l-37 -42 -27 26 c-53 51 -147 55 -226 9 -70 -40 -92 -119 -55 -199 36 -77
95 -115 179 -115 66 0 88 8 101 36 24 53 17 63 -51 66 -69 3 -75 10 -64 72 l6
33 122 -3 122 -2 -3 -104 c-2 -96 -4 -105 -29 -131 -14 -15 -51 -40 -82 -55
-74 -36 -192 -38 -258 -4 -113 59 -172 151 -172 266 1 131 79 240 200 277 51
15 163 9 208 -11z m1585 -170 c15 -7 27 -21 27 -30 0 -45 -1 -45 -628 -48
-547 -3 -596 -1 -613 14 -27 24 -23 51 9 68 23 13 110 14 602 12 442 -3 581
-6 603 -16z m-6213 -5 c19 -23 4 -64 -27 -71 -44 -11 -995 3 -1025 15 -32 12
-35 27 -11 53 15 17 45 18 533 18 446 0 519 -2 530 -15z m1320 -519 c0 -18 3
-54 6 -80 6 -44 8 -46 40 -46 23 0 37 -6 44 -20 14 -26 -1 -32 -66 -28 l-49 3
-3 94 c-1 52 0 101 3 108 9 24 25 4 25 -31z m1325 -174 c-2 -3 -33 24 -66 59
l-62 64 7 -57 c6 -55 5 -58 -15 -58 -21 0 -21 2 -14 93 4 50 9 94 11 96 3 3
28 -19 58 -48 l53 -52 6 51 c11 92 22 77 25 -34 1 -60 0 -111 -3 -114z m1225
181 c0 -7 13 -39 29 -71 36 -72 48 -122 29 -122 -8 0 -24 14 -36 30 -14 19
-32 30 -47 30 -27 0 -55 -24 -55 -47 0 -20 -24 -11 -28 10 -2 10 16 59 40 111
32 71 46 91 56 84 6 -6 12 -17 12 -25z m-3489 -31 c-38 -96 -66 -152 -78 -152
-6 0 -17 17 -24 38 -6 20 -25 63 -40 94 -35 68 -34 68 -8 68 15 0 26 -13 42
-50 12 -27 25 -50 29 -50 4 0 20 21 35 48 15 26 32 50 37 54 22 15 25 -5 7
-50z m94 -60 c6 -97 6 -104 -12 -100 -16 3 -18 15 -21 97 -1 52 0 101 3 109
12 32 23 -7 30 -106z m168 87 c18 -23 22 -65 8 -87 -5 -9 -1 -28 13 -52 11
-21 18 -42 14 -45 -13 -14 -47 7 -67 40 -29 50 -54 47 -49 -5 3 -32 0 -40 -12
-38 -12 3 -16 23 -18 105 -2 90 -1 102 15 106 32 9 78 -3 96 -24z m278 -40 c6
-74 13 -89 38 -89 29 0 38 19 46 93 5 49 11 67 21 67 23 0 27 -25 16 -101 -15
-101 -55 -139 -114 -108 -30 16 -48 70 -48 144 0 58 2 66 18 63 13 -3 18 -17
23 -69z m269 39 c24 -40 63 -165 55 -178 -12 -20 -34 -9 -37 18 -3 23 -8 28
-38 30 -29 3 -39 -2 -62 -30 l-27 -33 -1 32 c0 41 63 193 81 193 5 0 18 -14
29 -32z m385 -18 c9 -27 20 -52 25 -55 5 -3 16 15 26 40 9 25 23 45 31 45 7 0
23 -21 33 -46 11 -25 24 -43 29 -40 5 3 14 26 20 51 11 44 41 65 41 28 -1 -32
-55 -186 -67 -190 -6 -2 -19 20 -28 49 -25 77 -26 77 -49 12 -12 -32 -25 -59
-30 -59 -12 0 -75 155 -76 188 0 45 27 32 45 -23z m727 28 c22 -11 48 -59 48
-88 0 -59 -49 -100 -120 -100 l-40 0 0 54 c0 89 11 145 29 149 19 5 59 -2 83
-15z m546 6 c34 -24 26 -34 -25 -34 -51 0 -83 -20 -83 -53 0 -30 29 -57 62
-57 35 0 38 24 6 50 -21 17 -21 19 -6 25 10 4 30 3 45 -3 25 -8 28 -14 27 -47
-4 -110 -156 -91 -171 21 -5 36 -1 45 27 77 36 41 78 49 118 21z m210 -93 c2
-80 0 -102 -10 -99 -8 3 -16 36 -22 90 -9 90 -5 123 17 116 8 -3 13 -36 15
-107z m127 54 c25 -30 51 -55 56 -55 5 0 9 23 9 51 0 36 4 49 13 47 16 -6 23
-208 7 -208 -14 0 -47 36 -83 89 -15 23 -32 39 -37 36 -6 -3 -7 -31 -3 -66 6
-56 5 -61 -13 -57 -17 3 -19 14 -22 111 -3 128 3 133 73 52z m305 36 c0 -23
-76 -195 -88 -199 -9 -3 -17 11 -62 112 -33 77 -37 96 -16 96 8 0 26 -25 40
-55 14 -30 27 -55 30 -55 3 0 15 19 27 43 35 70 69 99 69 58z m74 -3 c3 -13 6
-60 6 -106 0 -81 -1 -83 -22 -80 -22 3 -23 6 -20 93 1 50 4 96 7 103 7 19 22
14 29 -10z m524 -1 c2 -11 -6 -20 -22 -27 -25 -9 -26 -13 -26 -80 0 -63 -2
-70 -20 -70 -18 0 -20 7 -20 74 0 74 0 75 -27 78 -17 2 -29 10 -31 20 -3 14 7
18 55 21 82 5 87 4 91 -16z m86 -8 c8 -42 8 -174 -1 -182 -3 -4 -12 -2 -20 4
-14 12 -19 161 -7 193 10 25 21 19 28 -15z m217 -11 c18 -19 29 -40 29 -57 0
-36 -38 -92 -73 -109 -24 -12 -32 -11 -60 5 -18 10 -41 36 -51 58 -19 38 -19
39 0 74 21 40 74 72 105 64 11 -3 33 -19 50 -35z m204 -42 c3 13 7 35 10 49 3
14 10 25 15 25 6 0 10 -41 10 -100 0 -73 -3 -100 -12 -100 -7 0 -32 28 -56 61
-23 33 -46 58 -51 55 -4 -3 -6 -31 -3 -62 4 -51 3 -56 -14 -52 -17 3 -19 14
-22 92 -4 128 -1 132 64 64 51 -53 54 -55 59 -32z m183 68 c29 -20 21 -32 -16
-26 -46 6 -47 -15 -3 -38 62 -31 72 -67 33 -112 -17 -21 -72 -24 -90 -6 -13
13 -16 48 -4 48 4 0 13 -5 19 -11 12 -12 53 -3 53 11 0 5 -19 19 -42 32 -50
27 -58 53 -28 91 24 31 46 34 78 11z m-3928 -4 c0 -5 -14 -17 -31 -25 l-30
-16 7 -80 c7 -78 3 -88 -26 -69 -11 7 -14 28 -13 83 1 75 1 75 -28 81 -17 3
-29 12 -29 21 0 12 14 15 75 15 42 0 75 -4 75 -10z m1080 -5 c0 -8 -9 -15 -19
-15 -55 0 -72 -37 -19 -42 41 -4 50 -28 10 -28 -22 0 -31 -6 -36 -22 -7 -29 6
-42 32 -33 13 4 19 12 15 21 -3 8 1 14 11 14 21 0 31 -43 16 -70 -8 -16 -18
-20 -33 -16 -12 3 -38 6 -57 6 l-35 0 3 100 3 100 55 0 c41 0 54 -4 54 -15z
m182 -12 c22 -21 28 -36 28 -71 0 -24 -4 -52 -10 -62 -12 -22 -61 -40 -111
-40 -39 0 -39 0 -39 39 0 21 3 66 6 100 l7 61 45 0 c36 0 52 -6 74 -27z m326
-68 c3 -83 -7 -120 -25 -101 -10 10 -17 161 -9 182 3 9 12 14 19 12 8 -3 13
-33 15 -93z m1310 78 c-2 -10 -13 -19 -25 -21 -21 -3 -22 -9 -25 -85 -4 -107
-22 -107 -26 -1 l-3 82 -34 6 c-21 4 -35 13 -35 21 0 12 16 15 76 15 66 0 75
-2 72 -17z"/>
<path d="M4375 7510 c-265 -8 -376 -21 -479 -56 -97 -33 -141 -62 -217 -141
-80 -83 -108 -130 -151 -253 l-33 -95 0 -285 c0 -267 2 -290 23 -365 52 -179
124 -281 262 -371 85 -54 153 -80 252 -95 94 -13 1911 -13 2044 1 106 11 167
32 263 89 140 83 227 196 270 351 31 109 44 331 31 499 -18 233 -40 316 -114
436 -58 92 -101 135 -184 184 -136 80 -212 88 -937 101 -626 11 -656 11 -1030
0z m1480 -100 c237 -7 290 -11 342 -28 129 -41 201 -104 259 -226 60 -126 69
-187 69 -491 0 -252 -2 -275 -22 -341 -28 -89 -109 -213 -165 -255 -71 -52
-177 -98 -253 -109 -103 -14 -1439 -23 -1780 -12 -250 9 -298 13 -347 30 -140
50 -272 191 -318 339 -28 92 -52 383 -40 503 12 127 25 188 63 290 26 73 40
94 92 145 112 110 205 143 440 155 211 10 1325 10 1660 0z"/>
<path d="M6161 7205 c-47 -54 -38 -91 29 -125 68 -35 96 -23 107 44 10 64 -28
116 -86 116 -11 0 -33 -16 -50 -35z"/>
<path d="M4232 7125 c-22 -10 -38 -27 -48 -51 l-15 -37 70 -141 c68 -137 250
-518 277 -583 8 -18 11 -33 6 -33 -4 0 -13 15 -21 33 -11 29 -13 30 -21 12 -6
-14 -9 -16 -10 -5 -2 8 -2 19 -1 24 1 5 -5 6 -14 3 -8 -4 -15 -1 -15 6 0 18
-69 34 -110 26 -39 -8 -52 -3 -30 11 8 6 10 10 4 10 -6 0 -21 -9 -34 -20 -13
-11 -36 -20 -52 -20 -38 0 -40 -1 -65 -30 -12 -14 -23 -20 -23 -13 0 13 -58
12 -80 -2 -9 -5 -11 -4 -6 3 4 7 2 12 -3 12 -6 0 -11 -4 -11 -9 0 -5 -15 -13
-32 -16 -18 -4 -44 -12 -58 -18 -34 -14 -43 -15 -57 -4 -8 6 -13 6 -13 0 0
-11 -54 -9 -89 2 -11 3 -23 15 -26 26 -6 17 -17 23 -37 20 -5 0 -8 4 -8 9 0 6
6 10 12 10 7 0 2 7 -10 16 -13 9 -21 22 -18 30 3 8 2 14 -3 14 -4 0 -13 15
-19 33 -10 28 -11 24 -6 -32 9 -112 37 -166 153 -300 58 -66 71 -74 161 -96
126 -32 284 -36 1173 -35 928 0 944 1 1065 44 23 8 63 31 90 51 46 35 142 150
142 170 0 6 -5 3 -10 -5 -8 -13 -10 -13 -10 2 0 9 5 20 10 23 6 3 10 13 10 21
0 14 -89 -74 -90 -88 0 -4 -7 -5 -15 -2 -9 4 -15 0 -15 -10 0 -9 -5 -16 -11
-16 -6 0 -9 6 -6 13 3 7 -3 13 -13 13 -10 0 -16 -4 -13 -9 3 -5 -4 -4 -16 2
-12 7 -26 9 -31 6 -6 -4 -13 1 -16 9 -3 9 -11 16 -16 16 -6 0 -8 -6 -5 -14 7
-18 -24 -15 -40 4 -11 13 -16 13 -44 -3 -26 -14 -30 -15 -25 -2 3 8 1 15 -4
15 -6 0 -10 -5 -10 -11 0 -7 -10 -9 -25 -7 -13 3 -22 1 -19 -3 3 -5 -4 -9 -15
-9 -12 0 -20 3 -20 8 4 22 -3 24 -14 3 -14 -29 -37 -39 -37 -17 0 9 8 16 17
16 9 0 13 3 9 8 -4 4 -12 7 -18 7 -5 0 -16 17 -23 38 -16 46 -67 125 -124 191
-22 26 -41 53 -41 60 0 6 15 27 34 45 19 18 49 63 68 100 30 60 33 74 33 156
-1 70 -5 100 -22 137 -28 62 -104 142 -161 170 -47 23 -51 23 -430 23 l-384 0
-25 -30 c-34 -42 -73 -122 -126 -256 -25 -64 -58 -140 -73 -170 -26 -51 -28
-53 -35 -29 -31 107 -48 148 -111 276 -40 79 -86 160 -104 179 -30 34 -35 35
-100 35 -38 -1 -84 -7 -102 -15z m928 -9 c0 -3 -4 -8 -10 -11 -5 -3 -10 -1
-10 4 0 6 5 11 10 11 6 0 10 -2 10 -4z m-752 -76 c45 -63 145 -270 230 -478
14 -34 28 -59 32 -55 4 5 12 28 19 53 8 25 28 74 46 110 18 36 58 124 90 195
89 202 83 192 117 199 45 9 158 7 158 -2 0 -5 -33 -76 -74 -158 -94 -188 -152
-318 -231 -514 l-63 -155 -57 0 -57 0 -130 275 c-71 151 -160 340 -199 419
l-70 144 86 -5 c76 -4 88 -7 103 -28z m1279 -8 c69 -36 108 -77 138 -143 49
-110 25 -221 -66 -306 -13 -12 -34 -25 -46 -30 -20 -8 -19 -12 41 -113 34 -58
77 -125 94 -149 18 -24 32 -48 32 -53 0 -4 -40 -8 -90 -8 l-90 0 -29 48 c-16
26 -60 94 -97 150 -66 102 -67 104 -98 97 -70 -16 -71 -15 -74 49 -2 39 1 62
9 67 7 4 52 10 101 14 106 9 146 30 166 90 17 51 9 80 -33 122 l-33 33 -136 0
-136 0 0 -207 c0 -115 -3 -265 -7 -335 l-6 -128 -72 0 c-70 0 -73 1 -79 27 -8
28 2 691 10 761 l5 43 227 -3 c213 -3 230 -4 269 -26z m-563 -364 c-4 -167 -8
-313 -8 -325 -1 -15 -7 -23 -19 -23 -10 0 -15 5 -12 10 8 13 -15 13 -35 0 -11
-7 -17 -4 -22 13 l-6 22 -1 -22 c-1 -22 -21 -44 -21 -24 0 19 -20 12 -21 -6 0
-11 -3 -13 -6 -5 -2 6 -16 12 -29 12 -13 0 -24 4 -24 10 0 5 -6 7 -14 4 -8 -3
-17 0 -21 5 -3 6 -10 9 -14 7 -4 -3 -5 8 -3 25 2 16 0 29 -6 29 -11 0 27 103
83 225 51 108 175 345 182 345 3 0 2 -136 -3 -302z m506 128 c17 -22 8 -57
-21 -78 -32 -24 -91 -33 -162 -24 -51 7 -55 9 -59 36 -8 53 4 65 68 68 32 1
60 5 63 7 11 12 99 4 111 -9z m-153 -333 c16 -21 53 -76 83 -123 67 -107 117
-170 136 -170 8 0 14 -4 14 -9 0 -14 -22 -18 -50 -10 -14 4 -19 7 -12 8 7 1
10 6 6 12 -3 6 -19 9 -35 7 -18 -3 -28 0 -26 6 4 13 -17 36 -33 36 -6 0 -8 5
-5 11 4 6 -3 13 -15 16 -12 3 -19 11 -16 19 3 8 -8 20 -30 30 -26 12 -32 19
-22 25 9 6 3 9 -17 9 -52 1 -65 19 -65 92 0 36 3 68 7 71 18 18 53 5 80 -30z
m-630 -95 c-3 -8 -6 -5 -6 6 -1 11 2 17 5 13 3 -3 4 -12 1 -19z m309 -169 c20
-22 23 -28 8 -19 -18 11 -50 50 -41 50 2 0 16 -14 33 -31z m779 -9 c-3 -5 -10
-10 -16 -10 -5 0 -9 5 -9 10 0 6 7 10 16 10 8 0 12 -4 9 -10z m-55 -15 c-35
-20 -55 -20 -38 0 7 8 24 14 38 14 l25 0 -25 -14z m37 -11 c-3 -3 -12 -4 -19
-1 -8 3 -5 6 6 6 11 1 17 -2 13 -5z"/>
<path d="M4450 6388 c0 -9 7 -19 16 -22 15 -6 15 -4 3 11 -7 10 -15 20 -16 22
-2 2 -3 -3 -3 -11z"/>
<path d="M4121 6358 c7 -16 16 -28 21 -28 13 0 10 9 -13 33 l-21 22 13 -27z"/>
<path d="M6865 4770 c-16 -17 -16 -20 -3 -15 9 4 19 13 22 21 7 19 2 18 -19
-6z"/>
<path d="M6790 4705 c-7 -9 -8 -15 -2 -15 5 0 12 7 16 15 3 8 4 15 2 15 -2 0
-9 -7 -16 -15z"/>
<path d="M6710 4635 c-13 -14 -19 -25 -13 -25 5 0 20 11 33 25 13 14 19 25 13
25 -5 0 -20 -11 -33 -25z"/>
<path d="M3090 4942 c0 -12 39 -57 44 -51 2 2 -7 17 -20 32 -13 15 -24 24 -24
19z"/>
<path d="M2075 5451 c-3 -5 -3 -45 -1 -88 l5 -78 100 0 c115 0 141 13 141 72
0 47 -16 72 -55 89 -38 16 -181 19 -190 5z"/>
<path d="M8450 5365 l0 -85 78 0 c147 0 188 32 150 115 -18 41 -57 55 -148 55
l-80 0 0 -85z"/>
<path d="M5002 5299 c-76 -15 -115 -40 -148 -96 -39 -66 -47 -110 -29 -171 56
-187 282 -255 413 -124 56 56 82 112 82 182 -1 72 -24 120 -80 162 -75 57
-132 68 -238 47z"/>
<path d="M2429 4843 c-20 -54 54 -84 81 -32 16 29 -4 59 -41 59 -23 0 -32 -6
-40 -27z"/>
<path d="M8476 4854 c-19 -18 -19 -20 -6 -45 13 -24 42 -25 63 -1 10 10 17 21
17 25 0 11 -31 37 -45 37 -7 0 -21 -7 -29 -16z"/>
<path d="M1523 4583 c9 -2 25 -2 35 0 9 3 1 5 -18 5 -19 0 -27 -2 -17 -5z"/>
<path d="M2043 4563 c15 -2 37 -2 50 0 12 2 0 4 -28 4 -27 0 -38 -2 -22 -4z"/>
<path d="M2318 4563 c23 -2 61 -2 85 0 23 2 4 4 -43 4 -47 0 -66 -2 -42 -4z"/>
<path d="M7848 4563 c7 -3 16 -2 19 1 4 3 -2 6 -13 5 -11 0 -14 -3 -6 -6z"/>
<path d="M8103 4563 c15 -2 37 -2 50 0 12 2 0 4 -28 4 -27 0 -38 -2 -22 -4z"/>
<path d="M7898 4553 c12 -2 32 -2 45 0 12 2 2 4 -23 4 -25 0 -35 -2 -22 -4z"/>
<path d="M2948 4003 c6 -2 18 -2 25 0 6 3 1 5 -13 5 -14 0 -19 -2 -12 -5z"/>
<path d="M8840 4001 c-30 -8 -67 -61 -76 -108 -3 -18 -1 -54 6 -79 17 -59 52
-84 118 -84 52 0 71 12 54 33 -5 7 -12 24 -16 38 -5 25 -32 46 -44 35 -2 -3
-7 -19 -11 -36 -11 -55 -26 -33 -35 55 -5 49 -14 85 -20 85 -6 0 -4 5 4 10 22
14 86 12 124 -4 l33 -14 -4 -98 -5 -99 23 22 c16 16 23 37 27 77 4 47 0 62
-23 101 -37 63 -87 85 -155 66z"/>
<path d="M8886 3938 c-20 -12 -21 -44 0 -52 37 -14 54 -7 54 23 0 32 -25 45
-54 29z"/>
<path d="M7683 3332 c-6 -26 -36 -104 -67 -174 -31 -71 -56 -130 -56 -133 0
-3 65 -5 145 -5 103 0 145 3 145 12 0 6 -11 30 -24 52 -13 23 -47 97 -76 166
-29 69 -53 126 -54 127 -1 1 -7 -19 -13 -45z"/>
<path d="M5660 3388 l0 -158 118 0 c64 0 134 5 154 10 88 25 129 116 90 202
-29 66 -74 91 -176 95 -45 2 -105 5 -133 7 l-53 3 0 -159z"/>
<path d="M4350 2115 l0 -178 73 5 c116 7 188 57 207 142 10 47 -3 96 -37 136
-37 45 -71 59 -162 66 l-81 7 0 -178z"/>
<path d="M5060 2199 c0 -52 -3 -132 -7 -178 l-6 -84 80 5 c139 10 203 60 211
166 3 47 0 63 -20 92 -31 48 -97 78 -185 86 l-73 7 0 -94z"/>
<path d="M6320 1615 c0 -8 7 -15 16 -15 14 0 14 3 4 15 -7 8 -14 15 -16 15 -2
0 -4 -7 -4 -15z"/>
<path d="M3056 1654 c-8 -21 1 -34 23 -34 22 0 45 25 36 40 -10 16 -52 12 -59
-6z"/>
<path d="M3643 1630 c-6 -15 -7 -26 -1 -29 15 -5 20 5 16 31 l-5 23 -10 -25z"/>
<path d="M4717 1618 c-3 -29 -2 -56 2 -60 12 -13 76 26 79 48 3 22 -21 48 -54
58 -20 6 -22 2 -27 -46z"/>
<path d="M6776 1649 c-30 -24 -33 -49 -8 -72 25 -23 68 -21 92 3 26 26 25 36
-5 65 -29 30 -45 31 -79 4z"/>
<path d="M4517 1653 c-10 -10 -8 -91 2 -97 17 -11 61 14 71 39 14 37 -3 65
-39 65 -15 0 -31 -3 -34 -7z"/>
</g>
</svg>
